<?xml version="1.0" encoding="UTF-8" standalone="no"?><!-- Generator: Gravit.io --><svg xmlns="http://www.w3.org/2000/svg" xmlns:xlink="http://www.w3.org/1999/xlink" style="isolation:isolate" viewBox="0 0 200 200" width="200pt" height="200pt"><defs><clipPath id="_clipPath_foTA0h6Qyil1YEQ1N29CfXBYFGvvjCLI"><rect width="200" height="200"/></clipPath></defs><g clip-path="url(#_clipPath_foTA0h6Qyil1YEQ1N29CfXBYFGvvjCLI)"><path d=" M 179.116 38.862 C 160.819 15.227 132.174 0 100 0 C 44.808 0 0 44.808 0 100 C 0 108.346 1.025 116.455 2.955 124.208 L 7.228 124.208 L 30.719 38.862 L 81.315 38.862 L 81.315 38.862 L 104.806 124.208 L 110.366 124.208 L 110.366 147.004 L 55.878 147.004 L 55.878 124.208 L 64.218 124.208 L 61.994 113.088 L 43.09 113.088 L 40.866 124.208 L 49.206 124.208 L 49.206 147.004 L 11.729 147.004 C 28.564 178.528 61.794 200 100 200 C 155.192 200 200 155.192 200 100 C 200 91.32 198.892 82.896 196.809 74.863 L 173.333 74.863 L 173.333 61.658 L 160.684 61.658 L 160.684 84.732 L 181.673 84.732 L 181.673 100.578 L 160.684 100.578 L 160.684 124.208 L 178.893 124.208 L 178.893 147.004 L 178.893 147.004 L 114.814 147.004 L 114.814 124.208 L 121.764 124.208 L 121.764 61.658 L 114.814 61.658 L 114.814 38.862 L 179.116 38.862 Z  M 51.847 70.693 L 46.148 98.354 L 58.936 98.354 L 53.237 70.693 L 51.847 70.693 L 51.847 70.693 Z " fill-rule="evenodd" fill="rgb(25,113,194)"/></g></svg>