<svg xmlns="http://www.w3.org/2000/svg" xmlns:xlink="http://www.w3.org/1999/xlink" style="isolation:isolate" width="512pt" height="512pt" viewBox="0 0 512 512"><defs><clipPath id="_clipPath_MSLk3NQdIsw7smSvj4gke34E1YdE0Lup"><rect width="512" height="512"/></clipPath></defs><g clip-path="url(#_clipPath_MSLk3NQdIsw7smSvj4gke34E1YdE0Lup)"><path fill="#1971C2" fill-rule="evenodd" d="M 458.538 99.487 C 411.697 38.982 338.365 0 256 0 C 114.71 0 0 114.71 0 256 C 0 277.367 2.623 298.126 7.565 317.972 L 18.504 317.972 L 78.641 99.487 L 208.166 99.487 L 208.166 99.487 L 268.303 317.972 L 282.537 317.972 L 282.537 376.33 L 143.048 376.33 L 143.048 317.972 L 164.398 317.972 L 158.705 289.505 L 110.31 289.505 L 104.617 317.972 L 125.967 317.972 L 125.967 376.33 L 30.026 376.33 C 73.125 457.032 158.194 512 256 512 C 397.29 512 512 397.29 512 256 C 512 233.778 509.162 212.213 503.83 191.649 L 443.732 191.649 L 443.732 157.844 L 411.351 157.844 L 411.351 216.914 L 465.083 216.914 L 465.083 257.48 L 411.351 257.48 L 411.351 317.972 L 457.966 317.972 L 457.966 376.33 L 457.966 376.33 L 293.924 376.33 L 293.924 317.972 L 311.716 317.972 L 311.716 157.844 L 293.924 157.844 L 293.924 99.487 L 458.538 99.487 Z M 132.728 180.974 L 118.139 251.786 L 150.876 251.786 L 136.287 180.974 L 132.728 180.974 L 132.728 180.974 Z"/></g></svg>